<?xml version="1.0" standalone="no"?>
<!DOCTYPE svg PUBLIC "-//W3C//DTD SVG 20010904//EN"
 "http://www.w3.org/TR/2001/REC-SVG-20010904/DTD/svg10.dtd">
<svg version="1.0" xmlns="http://www.w3.org/2000/svg"
 width="1601.000000pt" height="403.000000pt" viewBox="0 0 1601.000000 403.000000"
 preserveAspectRatio="xMidYMid meet">

<g transform="translate(0.000000,403.000000) scale(0.100000,-0.100000)"
fill="#55785A" stroke="none">
<path d="M9657 3558 c-511 -353 -665 -463 -653 -470 9 -5 16 -20 16 -32 0 -20
9 -27 50 -42 l50 -18 0 -73 0 -73 -205 0 -205 0 -622 365 -623 365 -345 -6
c-190 -3 -1110 -14 -2045 -24 l-1700 -19 -1372 -318 -1373 -318 0 -77 0 -78
100 0 100 0 0 -299 0 -298 -132 -7 c-73 -3 -221 -8 -328 -11 -107 -3 -232 -8
-277 -11 l-83 -6 0 -1049 0 -1049 8000 0 8000 0 0 1095 0 1095 -1600 0 -1600
0 0 350 0 350 100 0 100 0 0 70 0 70 -655 0 -655 0 0 49 0 50 42 3 c42 3 23
15 -667 427 -391 233 -719 430 -730 437 -18 11 -84 -32 -688 -448z"/>
</g>
</svg>
