<?xml version="1.0" standalone="no"?>
<!DOCTYPE svg PUBLIC "-//W3C//DTD SVG 20010904//EN"
 "http://www.w3.org/TR/2001/REC-SVG-20010904/DTD/svg10.dtd">
<svg version="1.0" xmlns="http://www.w3.org/2000/svg"
 width="1786.000000pt" height="192.000000pt" viewBox="0 0 1786.000000 192.000000"
 preserveAspectRatio="xMidYMid meet">

<g transform="translate(0.000000,192.000000) scale(0.100000,-0.100000)"
fill="#55785A" stroke="none">
<path d="M11017 1448 c-511 -353 -665 -463 -653 -470 9 -5 16 -20 16 -32 0
-20 9 -27 50 -42 l50 -18 0 -73 0 -73 -205 0 -205 0 -622 365 -623 365 -345
-6 c-190 -3 -1110 -14 -2045 -24 l-1700 -19 -1372 -318 -1373 -318 0 -77 0
-78 100 0 100 0 0 -310 0 -310 5990 0 5990 0 0 390 0 390 100 0 100 0 0 70 0
70 -655 0 -655 0 0 49 0 50 42 3 c42 3 23 15 -667 427 -391 233 -719 430 -730
437 -18 11 -84 -31 -688 -448z"/>
</g>
</svg>
